<?xml version="1.0" encoding="utf-8"?><!DOCTYPE svg PUBLIC "-//W3C//DTD SVG 1.1//EN" "http://www.w3.org/Graphics/SVG/1.1/DTD/svg11.dtd"><svg version="1.1" id="Contours" xmlns="http://www.w3.org/2000/svg" xmlns:xlink="http://www.w3.org/1999/xlink" x="0px" y="0px" width="1347.773804px" height="1347.773804px" viewBox="0.000003 -0.000013 1347.773804 1084.415894" enable-background="new 0 0 1347.773804 1347.773804" xml:space="preserve" stroke="black" fill="none" stroke-linecap='round' stroke-linejoin='round'><path class="selected"  fill="#000000" opacity="1.000000" stroke="none" 
 	d="
M253.039287 57.063570 C376.483397 25.639174 508.585518 84.581866 599.115543 174.193559 C683.458890 107.422987 780.515823 56.770092 883.524214 25.763960 C946.005763 6.956644 1011.606170 -4.711635 1076.527684 1.834820 C1141.449198 8.381275 1205.900248 34.494923 1250.345549 82.268077 C1280.592578 114.779855 1300.384654 155.680869 1315.344885 197.491034 C1341.259840 269.916957 1353.920987 347.909970 1344.853988 424.296412 C1336.813840 492.031980 1312.002668 556.839026 1280.762364 617.475604 C1216.043556 743.093048 1122.602985 853.804783 1009.643398 938.707068 C919.911272 1006.151210 816.585203 1057.811052 705.923478 1076.640531 C535.976267 1105.557643 355.084955 1052.417770 223.948679 940.518124 C92.812403 828.618478 12.391199 660.966818 1.311487 488.933410 C-4.502178 398.665466 8.508902 305.634191 50.457543 225.494241 C92.406184 145.354291 165.380009 79.378448 253.039273 57.063576 M229.396561 171.354300 C151.260964 213.643096 110.102067 304.237097 99.576788 392.456892 C86.573566 501.446082 112.644005 613.249042 163.961409 710.276105 C224.122556 824.024245 322.980087 921.318388 445.946976 959.228113 C529.087013 984.859534 624.985392 980.691800 696.557338 931.227750 C750.442182 893.987426 785.605323 835.412089 812.974464 775.902861 C847.841653 700.090485 872.784246 619.720651 886.965800 537.488538 C899.399243 465.392894 903.261835 389.531295 878.714175 320.612612 C861.789485 273.095775 826.457352 227.110233 776.743450 218.576604 C742.445573 212.689209 707.629499 225.660754 677.270073 242.669899 C670.746691 246.324682 663.368773 253.743629 667.527013 259.958206 C710.490772 324.168090 735.976723 399.951486 740.543182 477.074372 C743.352668 524.523718 737.896802 573.882306 714.546675 615.284060 C691.196548 656.685813 647.385874 688.613732 599.854897 688.239833 C536.721464 687.743199 486.052857 632.397299 463.989648 573.242492 C423.211670 463.910554 455.819199 335.520410 530.294133 245.688348 C494.129789 203.060325 446.137319 169.763512 392.228543 154.969865 C338.319766 140.176219 278.559670 144.746089 229.396562 171.354303 M1170.573449 138.518513 C1136.819024 108.393824 1089.071948 99.484247 1043.833612 98.891696 C977.047625 98.016903 910.106285 112.792018 849.893363 141.697671 C913.347824 174.744573 957.050875 238.600368 977.318588 307.213680 C997.586301 375.826992 996.526960 449.079750 987.509707 520.053378 C968.905205 666.486980 916.730117 808.553637 836.137680 932.221685 C998.437772 849.494997 1131.642531 710.982771 1207.968096 545.575899 C1229.320678 499.302241 1246.486856 450.370850 1250.528949 399.568825 C1255.163502 341.320539 1242.344730 282.875067 1222.916653 227.767067 C1211.323610 194.883244 1196.587495 161.735187 1170.573443 138.518521 M626.079122 573.843088 C642.223491 550.565344 644.983543 520.617592 644.153290 492.301436 C642.338003 430.390563 625.630505 368.967291 595.835665 314.667025 C571.045739 351.677963 552.092460 393.232831 545.509457 437.289772 C538.926454 481.346713 545.366749 528.060009 568.086214 566.376792 C575.639890 579.116202 587.642834 592.112549 602.377189 590.612764 C612.317527 589.600950 620.384834 582.053395 626.079123 573.843089 z"/></svg>